<?xml version="1.0" standalone="no"?><!DOCTYPE svg PUBLIC "-//W3C//DTD SVG 1.1//EN" "http://www.w3.org/Graphics/SVG/1.1/DTD/svg11.dtd"><svg t="1493895506848" class="icon" style="" viewBox="0 0 1024 1024" version="1.1" xmlns="http://www.w3.org/2000/svg" p-id="1764" xmlns:xlink="http://www.w3.org/1999/xlink" width="200" height="200"><defs><style type="text/css"></style></defs><path d="M513.287 74.651c-243.605 0-441.073 197.479-441.073 441.073s197.479 441.073 441.073 441.073 441.073-197.479 441.073-441.073-197.479-441.073-441.073-441.073zM513.287 937.218c-232.778 0-421.481-188.695-421.481-421.481s188.695-421.481 421.481-421.481 421.481 188.695 421.481 421.481-188.695 421.481-421.481 421.481zM430.51 529.406c-85.392 10.157-75.489 91.574-75.489 91.574s-0.915 25.76 22.816 38.908c49.995 27.47 101.403 10.834 127.405-23.295 25.993-34.155 10.796-117.266-74.752-107.166zM408.943 643.656c-15.926 1.98-28.769-7.424-28.769-20.988s11.407-27.741 27.34-29.356c18.295-1.781 30.275 8.975 30.275 22.527 0 13.479-12.909 25.954-28.855 27.811zM459.28 600.058c-5.369 4.081-11.988 3.51-14.836-1.376-3.007-4.875-1.857-12.528 3.623-16.544 6.281-4.875 12.836-3.417 15.667 1.373 2.841 4.953 0.835 12.276-4.454 16.553zM628.203 509.096c-20.135-4.022-10.316-15.011-10.316-15.011s19.715-33.11-3.922-57.169c-29.265-29.866-100.481 3.771-100.481 3.771-27.172 8.613-19.968-3.922-16.107-25.077 0-25.077-8.467-67.497-80.864-42.417-72.3 25.191-134.439 113.429-134.439 113.429-43.194 58.602-37.476 103.933-37.476 103.933 10.731 100.086 115.23 127.572 196.519 134.059 85.562 6.837 200.979-30.042 235.946-105.648 35.062-75.761-28.599-105.733-48.825-109.824zM447.445 696.317c-84.874 4.016-153.497-39.353-153.497-96.928 0-57.69 68.623-103.933 153.497-107.939 84.972-3.922 153.676 31.634 153.676 89.17 0 57.692-68.697 111.792-153.676 115.715zM669.881 473.843c6.771 0 12.658-5.211 13.671-11.965 0.091-0.512 0.161-0.934 0.161-1.532 10.391-95.323-76.839-78.934-76.839-78.934-7.703 0-13.909 6.41-13.909 14.326 0 7.775 6.201 14.16 13.909 14.16 62.658-14.073 48.831 49.692 48.908 49.683-0.001 7.938 6.281 14.274 14.073 14.274zM659.568 307.364c-30.196-7.257-61.136-1.013-69.876 0.677-0.663 0.091-1.262 0.688-1.914 0.857-0.326 0-0.49 0.348-0.49 0.348-8.562 2.468-14.836 10.503-14.836 20.059 0 11.338 9.060 20.723 20.381 20.723 0 0 10.993-1.454 18.452-4.45 7.372-2.986 69.876-2.215 100.905 50.772 16.942 38.662 7.463 64.587 6.206 68.695 0 0-4.027 10.070-4.027 19.981 0 11.429 9.058 18.607 20.3 18.607 9.392 0 17.271-1.287 19.636-17.402h0.091c33.366-112.979-40.777-166.059-94.788-178.873z" p-id="1765" fill="#ffffff"></path></svg>