<?xml version="1.0" standalone="no"?><!DOCTYPE svg PUBLIC "-//W3C//DTD SVG 1.1//EN" "http://www.w3.org/Graphics/SVG/1.1/DTD/svg11.dtd"><svg t="1494059117873" class="icon" style="" viewBox="0 0 1024 1024" version="1.1" xmlns="http://www.w3.org/2000/svg" p-id="1090" xmlns:xlink="http://www.w3.org/1999/xlink" width="48" height="48"><defs><style type="text/css"></style></defs><path d="M848 176l-96 0C752 149.504 730.56 128 704 128l-48 0L656 80c0-26.496-21.504-48-48-48l-192 0c-26.496 0-48 21.504-48 48L368 128 320 128C293.504 128 272 149.504 272 176l-96 0C149.504 176 128 197.504 128 224l0 720c0 26.496 21.504 48 48 48l672 0c26.496 0 48-21.504 48-48L896 224C896 197.504 874.56 176 848 176zM320 176l96 0 0-96 192 0 0 96L704 176 704 224 320 224 320 176zM848 944 176 944 176 224l96 0c0 26.496 21.504 48 48 48l384 0c26.496 0 48-21.504 48-48l96 0L848 944z" p-id="1091" fill="#0e1856"></path><path d="M272 368l480 0 0 48-480 0 0-48Z" p-id="1092" fill="#0e1856"></path><path d="M272 512l480 0 0 48-480 0 0-48Z" p-id="1093" fill="#0e1856"></path></svg>