<?xml version="1.0" standalone="no"?><!DOCTYPE svg PUBLIC "-//W3C//DTD SVG 1.1//EN" "http://www.w3.org/Graphics/SVG/1.1/DTD/svg11.dtd"><svg t="1494059321474" class="icon" style="" viewBox="0 0 1024 1024" version="1.1" xmlns="http://www.w3.org/2000/svg" p-id="5166" xmlns:xlink="http://www.w3.org/1999/xlink" width="48" height="48"><defs><style type="text/css"></style></defs><path d="M511.5 89.637c-160.392 0-290.374 129.982-290.374 290.374 0 106.409 97.354 219.18 132.807 318.225C406.807 845.93 400.947 934.361 511.5 934.361c112.189 0 104.667-88.01 157.567-235.52C704.625 599.587 801.874 485.6 801.874 380.01c0-160.39-130.036-290.373-290.374-290.373z m68.422 717.383l-130.88 16.34c-4.672-13.516-9.687-29.326-15.784-49.971-0.079-0.264-0.186-0.553-0.238-0.818l163.35-20.404c-2.323 7.787-4.805 15.971-6.971 23.309-3.458 11.852-6.546 22.147-9.477 31.544z m-154.583-59.87c-4.805-15.891-10.217-32.627-16.236-50.367h205.006c-3.249 9.477-6.495 18.98-9.294 27.955L425.339 747.15zM511.5 881.566c-26.741 0-39.042-3.088-52.717-32.996l111.875-14.018c-16.209 43.663-28.01 47.014-59.158 47.014z m123.33-237.578H388.46c-13.146-28.51-28.932-57.02-44.506-84.922-34.448-61.637-70.033-125.388-70.033-179.054 0-131.013 106.567-237.579 237.579-237.579S749.078 249 749.078 380.012c0 53.27-35.636 117.363-70.111 179.371-15.416 27.799-31.097 56.254-44.137 84.605zM511.5 221.625c7.26 0 13.199 5.913 13.199 13.198 0 7.286-5.914 13.199-13.199 13.199-72.779 0-131.988 59.211-131.988 131.988 0 7.285-5.913 13.199-13.199 13.199-7.285 0-13.198-5.914-13.198-13.199-0.001-87.348 71.034-158.385 158.385-158.385z" p-id="5167" fill="#0e1856"></path></svg>